<svg xmlns="http://www.w3.org/2000/svg" viewBox="0 0 821.47 209.93"><defs><style>.cls-1{fill:#1c1c1c;}.cls-2,.cls-3{fill:#ff5e5b;}.cls-3{fill-rule:evenodd;}</style></defs><title>logo_text</title><g id="Calque_2" data-name="Calque 2"><g id="Calque_1-2" data-name="Calque 1"><path class="cls-1" d="M130.32,0V165H97.18V151.22q-12.9,15.57-37.36,15.57a62.14,62.14,0,0,1-30.58-7.56A54.21,54.21,0,0,1,7.78,137.65Q0,123.64,0,105.19T7.78,72.72A54.19,54.19,0,0,1,29.24,51.15a62.14,62.14,0,0,1,30.58-7.56q22.91,0,35.8,14.45V0ZM87.62,129.32q8.67-9,8.67-24.13T87.62,81.06q-8.67-9-21.79-9-13.35,0-22,9t-8.67,24.13q0,15.12,8.67,24.13t22,9Q78.94,138.32,87.62,129.32Z"/><path class="cls-1" d="M162.34,45.37H197V165H162.34Z"/><path class="cls-1" d="M240.39,163.12q-14.23-3.68-22.68-9.23L229.27,129a72.86,72.86,0,0,0,19.35,8.34,81.06,81.06,0,0,0,22.24,3.23q22,0,22-10.9,0-5.12-6-7.34t-18.46-3.78a178.88,178.88,0,0,1-24.24-5.11,37.69,37.69,0,0,1-16.57-10.23q-7-7.35-7-20.91a32.68,32.68,0,0,1,6.56-20.12q6.56-8.79,19.12-13.68T276,43.59a116.12,116.12,0,0,1,25.24,2.78Q313.78,49.15,322,54L310.44,78.72A69.13,69.13,0,0,0,276,69.83q-11.12,0-16.68,3.11t-5.56,8q0,5.55,6,7.78T278.86,93a205.33,205.33,0,0,1,24,5.22,36.1,36.1,0,0,1,16.23,10.12q6.9,7.33,6.9,20.46a31.63,31.63,0,0,1-6.67,19.79q-6.68,8.67-19.46,13.46t-30.36,4.78A116.52,116.52,0,0,1,240.39,163.12Z"/><path class="cls-2" d="M448.43,51.26a55.15,55.15,0,0,1,21.46,21.57q7.78,13.9,7.78,32.36t-7.78,32.35a55.18,55.18,0,0,1-21.46,21.58,61,61,0,0,1-30.36,7.67q-22.9,0-36-14.46v55.82h-34.7V45.37h33.14V59.15q12.9-15.55,37.58-15.56A60.94,60.94,0,0,1,448.43,51.26ZM434,129.32q8.56-9,8.56-24.13T434,81.06q-8.57-9-21.9-9t-21.91,9q-8.57,9-8.56,24.13t8.56,24.13q8.56,9,21.91,9T434,129.32Z"/><path class="cls-2" d="M500.8,0h34.69V165H500.8Z"/><path class="cls-2" d="M658.69,56.82q14.89,13.23,14.9,39.92V165H641.12v-14.9q-9.79,16.68-36.47,16.68-13.8,0-23.91-4.67a35.58,35.58,0,0,1-15.45-12.9A33.54,33.54,0,0,1,560,130.54q0-16.68,12.56-26.24t38.81-9.57h27.57q0-11.34-6.89-17.45t-20.68-6.12a60.38,60.38,0,0,0-18.79,3,49.83,49.83,0,0,0-15.68,8.12L564.4,58a75.2,75.2,0,0,1,23.46-10.67A105,105,0,0,1,616,43.59Q643.79,43.59,658.69,56.82Zm-29.58,82.5a22.52,22.52,0,0,0,9.78-12.12V115H615.1q-21.35,0-21.35,14A12.45,12.45,0,0,0,599,139.54q5.22,3.9,14.34,3.9A30.16,30.16,0,0,0,629.11,139.32Z"/><path class="cls-2" d="M821.47,45.37l-54,127Q759.2,193,747.08,201.48t-29.24,8.45A61,61,0,0,1,699.38,207a40.75,40.75,0,0,1-14.9-8l12.68-24.68a29.77,29.77,0,0,0,9.23,5.56,28.79,28.79,0,0,0,10.34,2q7.11,0,11.56-3.45t8-11.45l.44-1.11L684.93,45.37h35.8l33.58,81.17,33.8-81.17Z"/><path class="cls-3" d="M197.08,34.74h-7A27.79,27.79,0,0,0,162.34,7V0A34.75,34.75,0,0,1,197.08,34.74Zm-20.85,0h7A20.84,20.84,0,0,0,162.34,13.9v7A13.89,13.89,0,0,1,176.23,34.74Zm-13.89-7v7h6.94A7,7,0,0,0,162.34,27.79Z"/></g></g></svg>